# xmcd
#
# Track frame offsets: 
#        150
#        27765
#        49001
#        76719
#        99676
#        109072
#        125836
#        154669
#        162231
#
# Disc length: 2395 seconds
#
# Revision: 5
# Processed by: cddbd v1.5.2PL0 Copyright (c) Steve Scherf et al.
# Submitted via: ExactAudioCopy v1.3
#
DISCID=67095909
DTITLE=Europa - Die Originale 14 - David Copperfield
DYEAR=1975
DGENRE=Hörspiel
TTITLE0=Ein geheimer Wunsch
TTITLE1=Der erste Kuss
TTITLE2=Erziehungsmethoden
TTITLE3=Ein furchtbarer Schlag
TTITLE4=Arbeit für einen Hungerlohn
TTITLE5=Bestohlen
TTITLE6=Ein Bündel Elend
TTITLE7=Neues Zuhause
TTITLE8=Trotwood Copperfield
EXTD=YEAR: 1975
EXTT0=
EXTT1=
EXTT2=
EXTT3=
EXTT4=
EXTT5=
EXTT6=
EXTT7=
EXTT8=
PLAYORDER=
